<svg xmlns="http://www.w3.org/2000/svg" width="373" height="41" viewBox="0 0 373 41"><polygon fill="#f76808" points="24.387 40.161 24.387 8.677 32.258 8.677 32.258 .806 .774 .806 .774 8.677 8.645 8.677 8.645 40.161" shapeRendering="crispEdges"/><path fill="#f5d90a" d="M87.3548387,0.806451613 L87.3548387,8.67741935 L95.2258065,8.67741935 L95.2258065,40.1612903 L79.483871,40.1612903 L79.483871,24.4193548 L71.6129032,24.4193548 L71.6129032,40.1612903 L55.8709677,40.1612903 L55.8709677,8.67741935 L63.7419355,8.67741935 L63.7419355,0.806451613 L87.3548387,0.806451613 Z M79.483871,8.67741935 L71.6129032,8.67741935 L71.6129032,16.5483871 L79.483871,16.5483871 L79.483871,8.67741935 Z" fillRule="nonzero" shapeRendering="crispEdges"/><polygon fill="#30a46c" points="130.645 40.161 130.645 22.452 138.516 22.452 138.516 40.161 154.258 40.161 154.258 .806 142.452 .806 142.452 8.677 126.71 8.677 126.71 .806 114.903 .806 114.903 40.161" shapeRendering="crispEdges"/><path fill="#0091ff" d="M205.419355,0.806451613 L205.419355,8.67741935 L213.290323,8.67741935 L213.290323,40.1612903 L197.548387,40.1612903 L197.548387,24.4193548 L189.677419,24.4193548 L189.677419,40.1612903 L173.935484,40.1612903 L173.935484,8.67741935 L181.806452,8.67741935 L181.806452,0.806451613 L205.419355,0.806451613 Z M197.548387,8.67741935 L189.677419,8.67741935 L189.677419,16.5483871 L197.548387,16.5483871 L197.548387,8.67741935 Z" fillRule="nonzero"/><polygon fill="#8e4ec6" points="264.452 40.161 264.452 32.29 272.323 32.29 272.323 16.548 256.581 16.548 256.581 32.29 248.71 32.29 248.71 8.677 272.323 8.677 272.323 .806 240.839 .806 240.839 8.677 232.968 8.677 232.968 32.29 240.839 32.29 240.839 40.161" shapeRendering="crispEdges"/><polygon fill="#d6409f" points="323.484 40.161 323.484 32.29 331.355 32.29 331.355 .806 315.613 .806 315.613 32.29 307.742 32.29 307.742 .806 292 .806 292 32.29 299.871 32.29 299.871 40.161" shapeRendering="crispEdges"/><polygon fill="#e5484d" points="372.677 40.161 372.677 .806 356.935 .806 356.935 40.161" shapeRendering="crispEdges"/></svg>